<svg width="870" height="521" viewBox="0 0 870 521" fill="none" xmlns="http://www.w3.org/2000/svg">
<g clip-path="url(#clip0_336_5)">
<path d="M666.093 514.257C654.954 504.845 648.189 489.977 649.963 475.503C651.737 461.029 662.727 447.723 676.981 444.649C691.236 441.576 707.485 450.084 711.815 464.009C714.198 437.162 716.944 409.191 731.217 386.329C744.141 365.628 766.526 350.815 790.786 348.165C815.046 345.515 840.588 355.524 855.718 374.672C870.848 393.82 874.553 421.658 863.956 443.641C856.15 459.836 841.768 471.888 826.7 481.693C778.008 513.11 719.608 525.886 662.246 517.67L666.093 514.257Z" fill="#299E60"/>
<path d="M831.729 356.079C811.711 372.383 793.347 390.619 776.902 410.521C751.166 441.562 730.341 476.364 715.15 513.715C714.038 516.44 718.463 517.626 719.563 514.932C744.416 454.228 784.093 400.725 834.964 359.315C837.249 357.454 833.994 354.234 831.729 356.079Z" fill="white"/>
<path d="M280.067 511.7C295.366 498.772 304.658 478.351 302.221 458.471C299.784 438.591 284.69 420.316 265.112 416.094C245.533 411.872 223.214 423.558 217.267 442.684C213.995 405.811 210.223 367.392 190.619 335.991C172.868 307.558 142.122 287.213 108.801 283.573C75.4801 279.934 40.3972 293.68 19.6161 319.98C-1.1651 346.28 -6.25327 384.515 8.30131 414.709C19.0232 436.952 38.7766 453.506 59.4733 466.973C125.503 509.939 207.412 527.858 285.351 516.388" fill="#299E60"/>
<path d="M52.5671 294.442C80.0612 316.836 105.284 341.883 127.871 369.219C150.461 396.527 170.35 425.961 187.257 457.109C196.707 474.582 205.197 492.558 212.687 510.956C214.215 514.698 208.137 516.327 206.627 512.626C193.359 480.191 176.945 449.133 157.618 419.899C138.386 390.772 116.373 363.578 91.8894 338.701C78.0414 324.637 63.4306 311.346 48.1231 298.886C44.9855 296.331 49.4555 291.908 52.5671 294.442Z" fill="white"/>
<path d="M624.5 519H259.5V144.5C259.5 64.8223 324.322 0 404 0H480C559.678 0 624.5 64.8223 624.5 144.5V519Z" fill="#491937"/>
<path d="M548.5 519H259.5V144.5C259.421 113.969 269.088 84.2103 287.096 59.5557C287.76 58.6509 288.422 57.7578 289.105 56.8745C297.815 45.4506 308.181 35.3897 319.859 27.0239C320.519 26.5439 321.181 26.0723 321.853 25.6006C331.625 18.838 342.196 13.3097 353.325 9.1416C353.986 8.89111 354.659 8.64013 355.332 8.3994C365.397 4.80747 375.831 2.34703 386.44 1.06348C387.098 0.973628 387.773 0.903319 388.449 0.833009C398.788 -0.272461 409.215 -0.272461 419.554 0.833009C420.228 0.903319 420.903 0.973619 421.568 1.06444C432.175 2.34807 442.606 4.80822 452.669 8.39945C453.342 8.64018 454.015 8.89114 454.677 9.14212C465.669 13.2577 476.116 18.7035 485.784 25.3579C486.456 25.8194 487.128 26.2911 487.79 26.7627C494.336 31.4355 500.485 36.6412 506.174 42.3267C510.736 46.8871 514.987 51.7483 518.898 56.8775C519.579 57.7579 520.241 58.6509 520.904 59.5543C538.912 84.2091 548.58 113.969 548.5 144.5V519Z" fill="#F4C245"/>
<path d="M525 351.5C533.837 351.5 541 344.337 541 335.5C541 326.663 533.837 319.5 525 319.5C516.163 319.5 509 326.663 509 335.5C509 344.337 516.163 351.5 525 351.5Z" fill="#FCEDC7"/>
<path d="M594.599 507.783H582.339L576.506 460.495L594.601 460.496L594.599 507.783Z" fill="#FFB8B8"/>
<path d="M573.582 504.28H597.226V519.167H558.695C558.695 517.212 559.08 515.276 559.829 513.47C560.577 511.664 561.673 510.022 563.056 508.64C564.438 507.258 566.079 506.161 567.885 505.413C569.691 504.665 571.627 504.28 573.582 504.28Z" fill="#2F2E41"/>
<path d="M655.599 507.783H643.339L637.506 460.495L655.601 460.496L655.599 507.783Z" fill="#FFB8B8"/>
<path d="M634.582 504.28H658.226V519.167H619.695C619.695 517.212 620.08 515.276 620.829 513.47C621.577 511.664 622.673 510.022 624.056 508.64C625.438 507.258 627.079 506.161 628.885 505.413C630.691 504.665 632.627 504.28 634.582 504.28Z" fill="#2F2E41"/>
<path d="M533.098 338.67C532.216 337.37 531.63 335.893 531.38 334.343C531.131 332.792 531.225 331.206 531.655 329.695C532.085 328.185 532.841 326.787 533.869 325.6C534.898 324.413 536.175 323.467 537.609 322.827L579.284 207.96L599.792 219.151L552.207 328.922C553.122 331.403 553.096 334.133 552.133 336.595C551.17 339.058 549.337 341.082 546.982 342.283C544.627 343.485 541.912 343.781 539.353 343.115C536.795 342.449 534.569 340.867 533.098 338.67Z" fill="#FFB8B8"/>
<path d="M649.337 360.253C647.975 359.472 646.8 358.402 645.896 357.118C644.992 355.833 644.38 354.367 644.105 352.82C643.829 351.274 643.895 349.687 644.299 348.169C644.704 346.651 645.436 345.241 646.444 344.037L633.533 222.527L656.871 223.594L662.237 343.114C664.147 344.942 665.321 347.407 665.535 350.043C665.749 352.678 664.99 355.301 663.4 357.413C661.809 359.526 659.5 360.982 656.908 361.505C654.316 362.029 651.622 361.583 649.337 360.253Z" fill="#FFB8B8"/>
<path d="M612.106 186.684C625.671 186.684 636.667 175.687 636.667 162.123C636.667 148.558 625.671 137.562 612.106 137.562C598.541 137.562 587.545 148.558 587.545 162.123C587.545 175.687 598.541 186.684 612.106 186.684Z" fill="#FFB8B8"/>
<path d="M649.18 332.618H575.133L575.222 332.042C575.355 331.181 588.419 245.603 578.784 217.606C577.817 214.855 577.902 211.843 579.022 209.151C580.143 206.459 582.22 204.276 584.853 203.023C598.625 196.537 625.061 188.552 647.373 207.932C650.657 210.831 653.221 214.454 654.862 218.514C656.504 222.575 657.179 226.962 656.833 231.328L649.18 332.618Z" fill="#299E60"/>
<path d="M589.354 258.25L556.018 251.487L571.644 214.457C572.579 210.871 574.898 207.802 578.093 205.923C581.288 204.044 585.098 203.51 588.687 204.436C592.276 205.363 595.351 207.675 597.237 210.865C599.123 214.056 599.667 217.864 598.75 221.455L589.354 258.25Z" fill="#299E60"/>
<path d="M632.05 270.808L630.046 224.867C628.526 216.231 633.47 208.067 641.073 206.732C648.679 205.403 656.105 211.392 657.632 220.092L665.165 263.02L632.05 270.808Z" fill="#299E60"/>
<path d="M646.717 327.119C658.631 372.495 659.931 430.188 656.717 493.119L640.717 491.119L611.717 371.119L595.717 493.119L577.717 492.119C572.339 426.089 567.104 369.403 575.717 332.119L646.717 327.119Z" fill="#2F2E41"/>
<path d="M628.289 181.104C623.707 185.985 615.197 183.365 614.6 176.697C614.553 176.179 614.557 175.658 614.61 175.141C614.919 172.188 616.625 169.506 616.216 166.388C616.124 165.611 615.834 164.872 615.376 164.239C611.725 159.349 603.154 166.425 599.708 161.999C597.595 159.285 600.079 155.012 598.457 151.979C596.317 147.975 589.978 149.95 586.003 147.758C581.581 145.318 581.845 138.532 584.756 134.405C588.307 129.371 594.532 126.685 600.68 126.298C606.827 125.911 612.933 127.573 618.672 129.81C625.193 132.351 631.66 135.863 635.673 141.597C640.553 148.57 641.023 157.945 638.582 166.099C637.097 171.059 632.03 177.118 628.289 181.104Z" fill="#2F2E41"/>
<path d="M469 410.5H339C337.288 410.509 335.642 409.839 334.424 408.636C333.205 407.434 332.513 405.797 332.5 404.085V113.915C332.513 112.203 333.205 110.566 334.424 109.364C335.642 108.161 337.288 107.491 339 107.5H469C470.712 107.491 472.358 108.161 473.576 109.364C474.795 110.566 475.487 112.203 475.5 113.915V404.085C475.487 405.797 474.795 407.434 473.576 408.636C472.358 409.839 470.712 410.509 469 410.5Z" fill="white"/>
<path d="M475.5 201.39H332.5V203.39H475.5V201.39Z" fill="#CCCCCC"/>
<path d="M476 315.5H333V317.5H476V315.5Z" fill="#CCCCCC"/>
<path d="M379.5 107.5H377.5V411.5H379.5V107.5Z" fill="#CCCCCC"/>
<path d="M429.5 107.5H427.5V411.5H429.5V107.5Z" fill="#CCCCCC"/>
</g>
<defs>
<clipPath id="clip0_336_5">
<rect width="870" height="520.139" fill="white"/>
</clipPath>
</defs>
</svg>
